<svg viewBox="0 0 96 96" xmlns="http://www.w3.org/2000/svg" xmlns:xlink="http://www.w3.org/1999/xlink" id="Icons_Scale" overflow="hidden"><path d="M51.3 19.7C51.3 19.7 45.6 25.1 45.3 25.8 44.6 27.3 45.3 29.1 46.8 29.8 48.3 30.5 50.1 29.8 50.8 28.3 51 27.5 51.3 19.7 51.3 19.7Z" stroke="#2F5597" stroke-width="1" stroke-linecap="butt" stroke-opacity="1" fill="#FFFFFF" fill-opacity="1"/><path d="M48 11C39.2 11 32 18.2 32 27 32 35.8 39.2 43 48 43 56.8 43 64 35.8 64 27 64 18.2 56.8 11 48 11ZM48 15C54.6 15 60 20.4 60 27 60 33.6 54.6 39 48 39 41.4 39 36 33.6 36 27 36 20.4 41.4 15 48 15" stroke="#2F5597" stroke-width="1" stroke-linecap="butt" stroke-opacity="1" fill="#FFFFFF" fill-opacity="1"/><path d="M46.1 46.9C39.3 46.2 33.4 42.2 30.3 36.1 27.2 30.1 27.4 22.9 30.8 17L18 17C15.8 17 14 18.8 14 21L14 81C14 83.2 15.8 85 18 85L46 85 46 47.5C46 47.3 46 47.1 46.1 46.9L46.1 46.9Z" stroke="#2F5597" stroke-width="1" stroke-linecap="butt" stroke-opacity="1" fill="#FFFFFF" fill-opacity="1"/><path d="M78 17 65.3 17C68.7 22.9 68.9 30.1 65.8 36.1 62.7 42.1 56.7 46.2 50 46.9 50 47.1 50.1 47.3 50.1 47.5L50.1 85 78.1 85C80.3 85 82.1 83.2 82.1 81L82.1 21C82 18.8 80.2 17 78 17Z" stroke="#2F5597" stroke-width="1" stroke-linecap="butt" stroke-opacity="1" fill="#FFFFFF" fill-opacity="1"/></svg>